HIERARCHY
ROOT Hips
{
    OFFSET 0.0 0.0 0.0
    CHANNELS 6 Xposition Yposition Zposition Zrotation Xrotation Yrotation
    JOINT LeftUpLeg
    {
        OFFSET 13.649548820554799 0.0 0.0
        CHANNELS 3 Zrotation Xrotation Yrotation
        JOINT LeftLeg
        {
            OFFSET 0.0 0.0 -58.108629939251415
            CHANNELS 3 Zrotation Xrotation Yrotation
            JOINT LeftFoot
            {
                OFFSET 0.0 0.0 -47.08769956804327
                CHANNELS 3 Zrotation Xrotation Yrotation
                JOINT LeftToeBase
                {
                    OFFSET 0.0 -11.349010906094879 0.0
                    CHANNELS 3 Zrotation Xrotation Yrotation
                    End Site
                    {
                        OFFSET 0 0 0
                    }
                }
            }
        }
    }
    JOINT RightUpLeg
    {
        OFFSET -13.649548820554799 0.0 0.0
        CHANNELS 3 Zrotation Xrotation Yrotation
        JOINT RightLeg
        {
            OFFSET 0.0 0.0 -58.108629939251415
            CHANNELS 3 Zrotation Xrotation Yrotation
            JOINT RightFoot
            {
                OFFSET 0.0 0.0 -47.08769956804327
                CHANNELS 3 Zrotation Xrotation Yrotation
                JOINT RightToeBase
                {
                    OFFSET 0.0 -11.349010906094879 0.0
                    CHANNELS 3 Zrotation Xrotation Yrotation
                    End Site
                    {
                        OFFSET 0 0 0
                    }
                }
            }
        }
    }
    JOINT Spine
    {
        OFFSET 0.0 0.0 11.716182064764524
        CHANNELS 3 Zrotation Xrotation Yrotation
        JOINT Spine1
        {
            OFFSET 0.0 0.0 11.66593176517277
            CHANNELS 3 Zrotation Xrotation Yrotation
            JOINT Spine2
            {
                OFFSET 0.0 0.0 11.66593176517277
                CHANNELS 3 Zrotation Xrotation Yrotation
                JOINT Spine3
                {
                    OFFSET 0.0 0.0 11.665931765172767
                    CHANNELS 3 Zrotation Xrotation Yrotation
                    JOINT Spine4
                    {
                        OFFSET 0.0 0.0 11.665931765172774
                        CHANNELS 3 Zrotation Xrotation Yrotation
                        JOINT RightShoulder
                        {
                            OFFSET -23.337854324262146 0.0 0.0
                            CHANNELS 3 Zrotation Xrotation Yrotation
                            JOINT RightArm
                            {
                                OFFSET -34.15785908833445 0.0 0.0
                                CHANNELS 3 Zrotation Xrotation Yrotation
                                JOINT RightForeArm
                                {
                                    OFFSET -34.41827396954807 0.0 0.0
                                    CHANNELS 3 Zrotation Xrotation Yrotation
                                    JOINT RightHand
                                    {
                                        OFFSET -11.289133845961292 0.0 0.0
                                        CHANNELS 3 Zrotation Xrotation Yrotation
                                        End Site
                                        {
                                            OFFSET 0 0 0
                                        }
                                    }
                                }
                            }
                        }
                        JOINT LeftShoulder
                        {
                            OFFSET 23.337854324262146 0.0 0.0
                            CHANNELS 3 Zrotation Xrotation Yrotation
                            JOINT LeftArm
                            {
                                OFFSET 34.15785908833445 0.0 0.0
                                CHANNELS 3 Zrotation Xrotation Yrotation
                                JOINT LeftForeArm
                                {
                                    OFFSET 34.41827396954807 0.0 0.0
                                    CHANNELS 3 Zrotation Xrotation Yrotation
                                    JOINT LeftHand
                                    {
                                        OFFSET 11.289133845961292 0.0 0.0
                                        CHANNELS 3 Zrotation Xrotation Yrotation
                                        End Site
                                        {
                                            OFFSET 0 0 0
                                        }
                                    }
                                }
                            }
                        }
                        JOINT Neck
                        {
                            OFFSET 0.0 0.0 11.66593178993597
                            CHANNELS 3 Zrotation Xrotation Yrotation
                            JOINT Head
                            {
                                OFFSET 0.0 0.0 25.614464441227344
                                CHANNELS 3 Zrotation Xrotation Yrotation
                                End Site
                                {
                                    OFFSET 0 0 0
                                }
                            }
                        }
                    }
                }
            }
        }
    }
}
MOTION
Frames: 4
Frame Time: 0.03333333333333333
61.63628489971161 -2.1436861641705036 438.1146789550781 142.97010585670455 -76.70901171047468 145.29231362348088 -7.978472080019158 11.807269676595764 -6.910599058108215 -2.718242582051693 2.0488369481998214 3.049290191889017 47.46244969690464 -3.1805546814635168e-15 50.95889627892716 9.93923337957349e-16 -1.2069275033730902e-32 -1.3914926731402886e-15 36.02685557573247 31.159870191878497 -2.318925473732242 -53.70455352847835 -28.38266484810847 -47.0226201888192 142.41489669778488 6.3611093629270335e-15 -65.69517650402784 0.0 0.0 -1.2424041724466862e-17 0.060615875505267036 2.84022876481653 -0.03300938385112212 7.951386703658792e-16 0.0 0.0 7.951386703658792e-16 0.0 0.0 7.951386703658792e-16 0.0 0.0 7.951386703658792e-16 0.0 0.0 163.91625584120024 9.460630394588241 -153.93883549878348 133.43278230416067 6.471666624622077e-15 1.053672362414215e-15 -6.810902643167792e-15 67.09573959796185 4.5162259855040525e-15 0.0 0.0 0.0 -36.612065945315166 -65.44210933700515 -93.24805051073295 -18.92474206899656 2.614388480982273e-15 1.3333441429840343e-14 -180.0 -5.171223205113679 -180.0 0.0 0.0 2.3854160110976376e-15 -5.682248759302992 -2.1268435955347095e-15 -5.2683104831839675e-17 0.0 0.0 1.1181637552020177e-16
61.735103774070744 -2.1297926366329194 438.1066303253174 142.46680436174987 -76.7020215002001 144.80595145762985 -7.991786420948118 11.823499003222059 -6.934827928013285 0.7182725188837256 -0.5410859815257862 6.363587981073984 45.78689437677511 7.951386703658792e-15 42.43989331672019 0.0 0.0 5.963540027744094e-16 34.79380119740157 30.518438340901398 -2.375861400289374 -54.21761014985807 -29.166012598220554 -42.10264588558434 147.3779212808673 -1.2722218725854067e-14 -60.82902183180005 0.0 0.0 4.969616689786745e-17 0.05919035693673782 2.9072357210166753 -0.017307960674922337 0.0 0.0 0.0 0.0 0.0 0.0 0.0 0.0 0.0 0.0 0.0 0.0 164.25368292267243 8.828705284958431 -153.98498219979186 133.4565573580479 5.026448744458034e-15 -1.1687158009020333e-14 -2.198186369454645e-15 67.00193727688101 9.083360416256224e-15 0.0 0.0 0.0 -38.770737954999134 -65.49864556195719 -94.9638453284577 -18.801968727253044 7.314717690490506e-15 -5.236633437874106e-15 -180.0 -5.3899194379005895 180.0 0.0 0.0 2.3854160110976376e-15 -5.659775471627972 -2.2843885561253612e-14 4.257039103675713e-16 6.212020862233431e-18 1.0102629771538143e-35 1.8636062586700292e-16
61.80780923366547 -2.1229560144245623 438.10132656097414 142.10798930828724 -76.70841629205127 144.4593809571617 -8.097458355045704 11.930149882211419 -6.911043079711028 1.9492583392910678 -1.4679839979448608 7.539447599375065 45.496477190801706 3.1805546814635168e-15 40.35062116868937 -3.1805546814635168e-15 0.0 0.0 33.23334793568631 29.662037506295835 -2.1052289655426693 -54.34288787199403 -29.666688108789888 -37.01710157288665 150.95289049658717 3.1805546814635168e-15 -55.85455561811593 0.0 0.0 3.1805546814635168e-15 0.05936868128484531 2.9685612575986915 -0.01268023666097524 0.0 -4.969616689786745e-17 0.0 0.0 -4.969616689786745e-17 0.0 0.0 -4.969616689786745e-17 0.0 0.0 -4.969616689786745e-17 0.0 164.49691348273228 8.412315778053365 -154.0222091264257 133.3965903095083 1.1684526011825219e-14 5.0325640768351515e-15 6.735963719829249e-15 66.78166642296188 -4.440003633779515e-15 -7.951386703658792e-16 0.0 0.0 -38.41431624245399 -65.55943749159064 -94.63365817611688 -18.770234512136177 1.0633732481644995e-15 1.3070578209296612e-14 -180.0 -4.546156741388167 -180.0 0.0 0.0 0.0 -5.625317012897874 -2.471244918623273e-14 1.1866188561464065e-15 1.987846675914698e-16 8.620910738379216e-35 4.969616689786745e-17
61.85780725479127 -2.1230142742395404 438.098663520813 141.88006424503268 -76.72719171056724 144.23748706041692 -8.341788545531873 12.172214161918003 -6.792693226164231 3.1511471148266414 -2.378072257554923 8.298114287648811 45.312013262126754 3.1805546814635168e-15 38.89147812801709 -9.144094709207612e-15 -3.1724951517235514e-32 3.975693351829397e-16 31.179675004089827 28.475153740191768 -1.5252931337671463 -52.99673008643626 -29.611613419190345 -32.230731860454036 128.802391714532 6.3611093629270335e-15 -61.3132525468068 0.0 0.0 1.5902773407317584e-15 0.060980571163352225 3.025384491694852 -0.024434889288912073 -7.951386703658792e-16 2.758691436281349e-33 -3.975693351829396e-16 -7.951386703658792e-16 2.758691436281349e-33 -3.975693351829396e-16 -7.951386703658792e-16 2.758691436281349e-33 -3.975693351829396e-16 -7.951386703658792e-16 2.758691436281349e-33 -3.975693351829396e-16 164.7131898237349 8.126014487311254 -154.07008297565199 133.31460859024023 -9.621152945423135e-15 6.2402308502097154e-15 -8.737049892083559e-15 66.47926160294377 1.3331476904249042e-14 -7.951386703658792e-16 0.0 0.0 -36.64317886764493 -65.61028882270968 -93.15110125066333 -18.793908991379894 1.0386007274620219e-15 -6.275748629130498e-15 180.0 -3.0168424517232526 -180.0 0.0 0.0 2.3854160110976376e-15 -5.581796090716475 1.9595718555065038e-14 -6.368956852652161e-16 -1.8636062586700292e-16 2.82873633603068e-34 -1.7393658414253607e-16
